<?xml version="1.0" encoding="UTF-8" standalone="no"?>
<!-- Created for Inkscape (http://www.inkscape.org/) -->

<svg
   xmlns:dc="http://purl.org/dc/elements/1.1/"
   xmlns:cc="http://creativecommons.org/ns#"
   xmlns:rdf="http://www.w3.org/1999/02/22-rdf-syntax-ns#"
   xmlns:svg="http://www.w3.org/2000/svg"
   xmlns="http://www.w3.org/2000/svg"
   xmlns:sodipodi="http://sodipodi.sourceforge.net/DTD/sodipodi-0.dtd"
   xmlns:inkscape="http://www.inkscape.org/namespaces/inkscape"
   width="3200"
   height="800"
   id="svg2985"
   version="1.1"
   inkscape:version="0.48.1 r9760">
  <defs
     id="defs2987" />
  <sodipodi:namedview
     id="base"
     pagecolor="#ffffff"
     bordercolor="#666666"
     borderopacity="1.0"
     inkscape:pageopacity="0.0"
     inkscape:pageshadow="2"
     inkscape:zoom="0.35"
     inkscape:cx="1600"
     inkscape:cy="400"
     inkscape:document-units="px"
     inkscape:current-layer="layer1"
     showgrid="false"  />
  <metadata
     id="metadata2990">
    <rdf:RDF>
      <cc:Work
         rdf:about="">
        <dc:format>image/svg+xml</dc:format>
        <dc:type
           rdf:resource="http://purl.org/dc/dcmitype/StillImage" />
        <dc:title />
      </cc:Work>
    </rdf:RDF>
  </metadata>
  <g
     inkscape:label="Layer 1"
     inkscape:groupmode="layer"
     id="layer1"> 
     <g>
<circle cx="1437.464" cy="495.03735" r="0.5495449" style="fill:none;stroke:black;stroke-width:2;"/>
<circle cx="1434.4254" cy="509.26843" r="0.57750607" style="fill:none;stroke:black;stroke-width:2;"/>
<circle cx="1432.0911" cy="523.916" r="0.57320434" style="fill:none;stroke:black;stroke-width:2;"/>
<circle cx="1431.5466" cy="538.6556" r="0.5764306" style="fill:none;stroke:black;stroke-width:2;"/>
<circle cx="1436.0127" cy="552.20825" r="0.5904112" style="fill:none;stroke:black;stroke-width:2;"/>
<circle cx="1446.5562" cy="560.1266" r="0.61622155" style="fill:none;stroke:black;stroke-width:2;"/>
<circle cx="1459.1383" cy="565.7972" r="0.58180773" style="fill:none;stroke:black;stroke-width:2;"/>
<circle cx="1472.9419" cy="570.46643" r="0.49147162" style="fill:none;stroke:black;stroke-width:2;"/>
<circle cx="1485.8206" cy="577.11426" r="0.61407065" style="fill:none;stroke:black;stroke-width:2;"/>
<circle cx="1490.4756" cy="589.9457" r="0.39360747" style="fill:none;stroke:black;stroke-width:2;"/>
<circle cx="1475.5237" cy="595.57465" r="0.58610946" style="fill:none;stroke:black;stroke-width:2;"/>
<circle cx="1459.1531" cy="598.1979" r="0.57320434" style="fill:none;stroke:black;stroke-width:2;"/>
<circle cx="1442.8236" cy="595.46014" r="0.5764306" style="fill:none;stroke:black;stroke-width:2;"/>
<circle cx="1427.8333" cy="592.33234" r="0.462435" style="fill:none;stroke:black;stroke-width:2;"/>
<circle cx="1415.5139" cy="584.95233" r="0.58180773" style="fill:none;stroke:black;stroke-width:2;"/>
<circle cx="1401.8489" cy="579.645" r="0.55277115" style="fill:none;stroke:black;stroke-width:2;"/>
<circle cx="1390.4889" cy="570.72284" r="0.56029916" style="fill:none;stroke:black;stroke-width:2;"/>
<circle cx="1381.4097" cy="560.64813" r="0.5893358" style="fill:none;stroke:black;stroke-width:2;"/>
<circle cx="1380.5232" cy="547.49744" r="0.5495449" style="fill:none;stroke:black;stroke-width:2;"/>
<circle cx="1409.1694" cy="547.5956" r="0.38607946" style="fill:none;stroke:black;stroke-width:2;"/>
<circle cx="1385.0153" cy="534.63196" r="0.55277115" style="fill:none;stroke:black;stroke-width:2;"/>
<circle cx="1388.0326" cy="520.9032" r="0.57320434" style="fill:none;stroke:black;stroke-width:2;"/>
<circle cx="1387.499" cy="506.54205" r="0.60116553" style="fill:none;stroke:black;stroke-width:2;"/>
<circle cx="1385.8373" cy="492.57147" r="0.58610946" style="fill:none;stroke:black;stroke-width:2;"/>
<circle cx="1380.5737" cy="479.4853" r="0.61299527" style="fill:none;stroke:black;stroke-width:2;"/>
<circle cx="1370.2306" cy="472.35577" r="0.45813328" style="fill:none;stroke:black;stroke-width:2;"/>
<circle cx="1410.0261" cy="455.75592" r="0.38607946" style="fill:none;stroke:black;stroke-width:2;"/>
<circle cx="1442.2908" cy="481.248" r="0.5495449" style="fill:none;stroke:black;stroke-width:2;"/>
<circle cx="1451.818" cy="470.92062" r="0.5646009" style="fill:none;stroke:black;stroke-width:2;"/>
<circle cx="1465.1699" cy="466.83276" r="0.5850341" style="fill:none;stroke:black;stroke-width:2;"/>
<circle cx="1480.3726" cy="465.36737" r="0.6000901" style="fill:none;stroke:black;stroke-width:2;"/>
<circle cx="1478.8549" cy="518.40784" r="0.38607946" style="fill:none;stroke:black;stroke-width:2;"/>
<circle cx="1521.3282" cy="507.8259" r="0.38607946" style="fill:none;stroke:black;stroke-width:2;"/>
<circle cx="1515.0085" cy="551.5792" r="0.38607946" style="fill:none;stroke:black;stroke-width:2;"/>
<circle cx="1556.4352" cy="559.17053" r="0.5495449" style="fill:none;stroke:black;stroke-width:2;"/>
<circle cx="1553.0328" cy="575.0501" r="0.57320434" style="fill:none;stroke:black;stroke-width:2;"/>
<circle cx="1552.8794" cy="591.6097" r="0.44415268" style="fill:none;stroke:black;stroke-width:2;"/>
<circle cx="1564.1805" cy="603.0026" r="0.47641557" style="fill:none;stroke:black;stroke-width:2;"/>
<circle cx="1578.5005" cy="608.7742" r="0.49147162" style="fill:none;stroke:black;stroke-width:2;"/>
<circle cx="1594.5576" cy="608.7732" r="0.569978" style="fill:none;stroke:black;stroke-width:2;"/>
<circle cx="1609.416" cy="603.6573" r="0.47641557" style="fill:none;stroke:black;stroke-width:2;"/>
<circle cx="1618.4828" cy="666.77075" r="0.38607946" style="fill:none;stroke:black;stroke-width:2;"/>
<circle cx="1559.1271" cy="675.9451" r="0.38607946" style="fill:none;stroke:black;stroke-width:2;"/>
<circle cx="1509.9087" cy="645.04895" r="0.38607946" style="fill:none;stroke:black;stroke-width:2;"/>
<circle cx="1488.8545" cy="703.3545" r="0.385004" style="fill:none;stroke:black;stroke-width:2;"/>
<circle cx="1444.8678" cy="659.4345" r="0.38607946" style="fill:none;stroke:black;stroke-width:2;"/>
<circle cx="1397.418" cy="709.1088" r="0.385004" style="fill:none;stroke:black;stroke-width:2;"/>
<circle cx="1351.3574" cy="757.98047" r="0.385004" style="fill:none;stroke:black;stroke-width:2;"/>
<circle cx="1440.8453" cy="760.72095" r="0.385004" style="fill:none;stroke:black;stroke-width:2;"/>
<circle cx="1524.852" cy="760.07434" r="0.385004" style="fill:none;stroke:black;stroke-width:2;"/>
<circle cx="1595.3938" cy="749.0868" r="0.385004" style="fill:none;stroke:black;stroke-width:2;"/>
<circle cx="1663.6484" cy="762.84564" r="0.385004" style="fill:none;stroke:black;stroke-width:2;"/>
<circle cx="1673.3002" cy="698.87054" r="0.385004" style="fill:none;stroke:black;stroke-width:2;"/>
<circle cx="1736.0276" cy="751.38525" r="0.385004" style="fill:none;stroke:black;stroke-width:2;"/>
<circle cx="1805.2864" cy="754.2783" r="0.385004" style="fill:none;stroke:black;stroke-width:2;"/>
<circle cx="1878.4719" cy="757.9535" r="0.385004" style="fill:none;stroke:black;stroke-width:2;"/>
<circle cx="1951.372" cy="759.715" r="0.385004" style="fill:none;stroke:black;stroke-width:2;"/>
<circle cx="1924.3787" cy="688.71814" r="0.385004" style="fill:none;stroke:black;stroke-width:2;"/>
<circle cx="1956.263" cy="637.4786" r="0.38607946" style="fill:none;stroke:black;stroke-width:2;"/>
<circle cx="1889.5352" cy="641.4124" r="0.38607946" style="fill:none;stroke:black;stroke-width:2;"/>
<circle cx="1851.0697" cy="689.2362" r="0.385004" style="fill:none;stroke:black;stroke-width:2;"/>
<circle cx="1830.8745" cy="634.55664" r="0.38607946" style="fill:none;stroke:black;stroke-width:2;"/>
<circle cx="1786.5831" cy="600.87604" r="0.6043918" style="fill:none;stroke:black;stroke-width:2;"/>
<circle cx="1796.7688" cy="587.1559" r="0.45813328" style="fill:none;stroke:black;stroke-width:2;"/>
<circle cx="1787.5757" cy="572.7654" r="0.6097689" style="fill:none;stroke:black;stroke-width:2;"/>
<circle cx="1772.5928" cy="564.6142" r="0.49147162" style="fill:none;stroke:black;stroke-width:2;"/>
<circle cx="1755.7205" cy="560.1594" r="0.56245" style="fill:none;stroke:black;stroke-width:2;"/>
<circle cx="1745.0752" cy="547.7631" r="0.56245" style="fill:none;stroke:black;stroke-width:2;"/>
<circle cx="1736.2246" cy="534.342" r="0.5828832" style="fill:none;stroke:black;stroke-width:2;"/>
<circle cx="1729.364" cy="520.38763" r="0.58073235" style="fill:none;stroke:black;stroke-width:2;"/>
<circle cx="1724.0417" cy="505.6228" r="0.5495449" style="fill:none;stroke:black;stroke-width:2;"/>
<circle cx="1722.3398" cy="489.97983" r="0.60116553" style="fill:none;stroke:black;stroke-width:2;"/>
<circle cx="1724.2659" cy="475.5047" r="0.57750607" style="fill:none;stroke:black;stroke-width:2;"/>
<circle cx="1729.2812" cy="462.87506" r="0.60116553" style="fill:none;stroke:black;stroke-width:2;"/>
<circle cx="1733.2281" cy="450.54907" r="0.47641557" style="fill:none;stroke:black;stroke-width:2;"/>
<circle cx="1742.3232" cy="440.87793" r="0.61729693" style="fill:none;stroke:black;stroke-width:2;"/>
<circle cx="1752.2971" cy="432.95273" r="0.4882453" style="fill:none;stroke:black;stroke-width:2;"/>
<circle cx="1763.6501" cy="428.03574" r="0.49147162" style="fill:none;stroke:black;stroke-width:2;"/>
<circle cx="1776.2466" cy="429.9768" r="0.5850341" style="fill:none;stroke:black;stroke-width:2;"/>
<circle cx="1788.4646" cy="432.36328" r="0.6000901" style="fill:none;stroke:black;stroke-width:2;"/>
<circle cx="1799.947" cy="438.06467" r="0.57320434" style="fill:none;stroke:black;stroke-width:2;"/>
<circle cx="1777.8309" cy="496.7718" r="0.38607946" style="fill:none;stroke:black;stroke-width:2;"/>
<circle cx="1822.3269" cy="541.1226" r="0.38607946" style="fill:none;stroke:black;stroke-width:2;"/>
<circle cx="1862.3223" cy="581.39355" r="0.38607946" style="fill:none;stroke:black;stroke-width:2;"/>
<circle cx="1917.9264" cy="593.2602" r="0.38607946" style="fill:none;stroke:black;stroke-width:2;"/>
<circle cx="1967.3978" cy="567.60504" r="0.38607946" style="fill:none;stroke:black;stroke-width:2;"/>
<circle cx="2033.0342" cy="575.0028" r="0.385004" style="fill:none;stroke:black;stroke-width:2;"/>
<circle cx="2027.8046" cy="643.0369" r="0.385004" style="fill:none;stroke:black;stroke-width:2;"/>
<circle cx="1996.431" cy="700.0629" r="0.385004" style="fill:none;stroke:black;stroke-width:2;"/>
<circle cx="2025.6179" cy="757.496" r="0.385004" style="fill:none;stroke:black;stroke-width:2;"/>
<circle cx="2092.3706" cy="758.39526" r="0.385004" style="fill:none;stroke:black;stroke-width:2;"/>
<circle cx="2084.529" cy="691.4226" r="0.385004" style="fill:none;stroke:black;stroke-width:2;"/>
<circle cx="2093.192" cy="617.4299" r="0.385004" style="fill:none;stroke:black;stroke-width:2;"/>
<circle cx="2093.8982" cy="537.7223" r="0.385004" style="fill:none;stroke:black;stroke-width:2;"/>
<circle cx="2029.3125" cy="501.11618" r="0.385004" style="fill:none;stroke:black;stroke-width:2;"/>
<circle cx="2090.6746" cy="458.38055" r="0.385004" style="fill:none;stroke:black;stroke-width:2;"/>
<circle cx="2092.535" cy="377.88556" r="0.385004" style="fill:none;stroke:black;stroke-width:2;"/>
<circle cx="2031.1292" cy="410.84424" r="0.385004" style="fill:none;stroke:black;stroke-width:2;"/>
<circle cx="1982.8174" cy="443.06274" r="0.385004" style="fill:none;stroke:black;stroke-width:2;"/>
<circle cx="1954.4384" cy="501.60532" r="0.38607946" style="fill:none;stroke:black;stroke-width:2;"/>
<circle cx="1915.8445" cy="536.91486" r="0.38607946" style="fill:none;stroke:black;stroke-width:2;"/>
<circle cx="1873.2423" cy="516.728" r="0.38607946" style="fill:none;stroke:black;stroke-width:2;"/>
<circle cx="1827.0046" cy="493.34067" r="0.38607946" style="fill:none;stroke:black;stroke-width:2;"/>
<circle cx="1824.5651" cy="444.89536" r="0.5850341" style="fill:none;stroke:black;stroke-width:2;"/>
<circle cx="1811.7281" cy="441.9339" r="0.58610946" style="fill:none;stroke:black;stroke-width:2;"/>
<circle cx="1837.3105" cy="446.7644" r="0.5850341" style="fill:none;stroke:black;stroke-width:2;"/>
<circle cx="1850.3765" cy="449.02585" r="0.569978" style="fill:none;stroke:black;stroke-width:2;"/>
<circle cx="1860.6393" cy="411.63535" r="0.38607946" style="fill:none;stroke:black;stroke-width:2;"/>
<circle cx="1862.6337" cy="453.42636" r="0.57320434" style="fill:none;stroke:black;stroke-width:2;"/>
<circle cx="1875.7825" cy="456.30737" r="0.6119198" style="fill:none;stroke:black;stroke-width:2;"/>
<circle cx="1889.6473" cy="458.64426" r="0.57320434" style="fill:none;stroke:black;stroke-width:2;"/>
<circle cx="1904.06" cy="459.37338" r="0.44307727" style="fill:none;stroke:black;stroke-width:2;"/>
<circle cx="1916.6785" cy="450.8944" r="0.6022409" style="fill:none;stroke:black;stroke-width:2;"/>
<circle cx="1930.5925" cy="443.4637" r="0.61729693" style="fill:none;stroke:black;stroke-width:2;"/>
<circle cx="1928.8285" cy="428.43744" r="0.4194178" style="fill:none;stroke:black;stroke-width:2;"/>
<circle cx="1913.8455" cy="419.63617" r="0.5947129" style="fill:none;stroke:black;stroke-width:2;"/>
<circle cx="1900.4358" cy="405.22385" r="0.60116553" style="fill:none;stroke:black;stroke-width:2;"/>
<circle cx="1890.0308" cy="388.78705" r="0.55277115" style="fill:none;stroke:black;stroke-width:2;"/>
<circle cx="1880.5286" cy="371.66623" r="0.5646009" style="fill:none;stroke:black;stroke-width:2;"/>
<circle cx="1867.074" cy="358.3386" r="0.61299527" style="fill:none;stroke:black;stroke-width:2;"/>
<circle cx="1852.5222" cy="348.1156" r="0.58180773" style="fill:none;stroke:black;stroke-width:2;"/>
<circle cx="1835.4229" cy="342.40683" r="0.45813328" style="fill:none;stroke:black;stroke-width:2;"/>
<circle cx="1816.1365" cy="340.08655" r="0.45813328" style="fill:none;stroke:black;stroke-width:2;"/>
<circle cx="1777.0443" cy="339.55945" r="0.45813328" style="fill:none;stroke:black;stroke-width:2;"/>
<circle cx="1758.0206" cy="335.63287" r="0.44307727" style="fill:none;stroke:black;stroke-width:2;"/>
<circle cx="1796.5906" cy="341.44385" r="0.57320434" style="fill:none;stroke:black;stroke-width:2;"/>
<circle cx="1831.6416" cy="378.0606" r="0.38607946" style="fill:none;stroke:black;stroke-width:2;"/>
<circle cx="1818.0364" cy="407.53638" r="0.38607946" style="fill:none;stroke:black;stroke-width:2;"/>
<circle cx="1783.9479" cy="383.6777" r="0.38607946" style="fill:none;stroke:black;stroke-width:2;"/>
<circle cx="1742.2002" cy="380.43115" r="0.38607946" style="fill:none;stroke:black;stroke-width:2;"/>
<circle cx="1711.3445" cy="409.57016" r="0.38607946" style="fill:none;stroke:black;stroke-width:2;"/>
<circle cx="1685.8364" cy="444.0515" r="0.38607946" style="fill:none;stroke:black;stroke-width:2;"/>
<circle cx="1688.2773" cy="483.81006" r="0.38607946" style="fill:none;stroke:black;stroke-width:2;"/>
<circle cx="1650.9375" cy="487.17038" r="0.61729693" style="fill:none;stroke:black;stroke-width:2;"/>
<circle cx="1643.396" cy="441.6651" r="0.38607946" style="fill:none;stroke:black;stroke-width:2;"/>
<circle cx="1602.4546" cy="452.65463" r="0.38607946" style="fill:none;stroke:black;stroke-width:2;"/>
<circle cx="1638.1969" cy="485.40454" r="0.5646009" style="fill:none;stroke:black;stroke-width:2;"/>
<circle cx="1658.8276" cy="501.22235" r="0.6054672" style="fill:none;stroke:black;stroke-width:2;"/>
<circle cx="1666.523" cy="515.75366" r="0.6054672" style="fill:none;stroke:black;stroke-width:2;"/>
<circle cx="1674.3743" cy="530.1455" r="0.5893358" style="fill:none;stroke:black;stroke-width:2;"/>
<circle cx="1684.4594" cy="544.4945" r="0.5904112" style="fill:none;stroke:black;stroke-width:2;"/>
<circle cx="1694.4373" cy="558.71454" r="0.60116553" style="fill:none;stroke:black;stroke-width:2;"/>
<circle cx="1705.3767" cy="573.34546" r="0.5904112" style="fill:none;stroke:black;stroke-width:2;"/>
<circle cx="1717.4006" cy="587.57715" r="0.56029916" style="fill:none;stroke:black;stroke-width:2;"/>
<circle cx="1731.7964" cy="598.5586" r="0.5893358" style="fill:none;stroke:black;stroke-width:2;"/>
<circle cx="1749.4156" cy="603.5307" r="0.5764306" style="fill:none;stroke:black;stroke-width:2;"/>
<circle cx="1768.2906" cy="605.4566" r="0.45813328" style="fill:none;stroke:black;stroke-width:2;"/>
<circle cx="1784.9457" cy="673.97156" r="0.38607946" style="fill:none;stroke:black;stroke-width:2;"/>
<circle cx="1728.8622" cy="665.7039" r="0.38607946" style="fill:none;stroke:black;stroke-width:2;"/>
<circle cx="1674.1855" cy="638.16833" r="0.38607946" style="fill:none;stroke:black;stroke-width:2;"/>
<circle cx="1655.2462" cy="585.6618" r="0.38607946" style="fill:none;stroke:black;stroke-width:2;"/>
<circle cx="1611.0297" cy="587.99506" r="0.58610946" style="fill:none;stroke:black;stroke-width:2;"/>
<circle cx="1603.1917" cy="576.1353" r="0.5947129" style="fill:none;stroke:black;stroke-width:2;"/>
<circle cx="1594.4475" cy="564.957" r="0.57320434" style="fill:none;stroke:black;stroke-width:2;"/>
<circle cx="1597.985" cy="549.4809" r="0.57320434" style="fill:none;stroke:black;stroke-width:2;"/>
<circle cx="1612.3108" cy="522.595" r="0.5646009" style="fill:none;stroke:black;stroke-width:2;"/>
<circle cx="1629.3088" cy="497.77463" r="0.56245" style="fill:none;stroke:black;stroke-width:2;"/>
<circle cx="1620.856" cy="509.9348" r="0.6108444" style="fill:none;stroke:black;stroke-width:2;"/>
<circle cx="1604.9053" cy="535.72656" r="0.6022409" style="fill:none;stroke:black;stroke-width:2;"/>
<circle cx="1560.1565" cy="542.9482" r="0.5495449" style="fill:none;stroke:black;stroke-width:2;"/>
<circle cx="1564.1089" cy="526.8641" r="0.57320434" style="fill:none;stroke:black;stroke-width:2;"/>
<circle cx="1567.1033" cy="510.57443" r="0.5742797" style="fill:none;stroke:black;stroke-width:2;"/>
<circle cx="1569.2498" cy="494.18976" r="0.58610946" style="fill:none;stroke:black;stroke-width:2;"/>
<circle cx="1569.7214" cy="477.8228" r="0.58610946" style="fill:none;stroke:black;stroke-width:2;"/>
<circle cx="1560.9548" cy="465.15143" r="0.49254704" style="fill:none;stroke:black;stroke-width:2;"/>
<circle cx="1528.3569" cy="464.44757" r="0.57320434" style="fill:none;stroke:black;stroke-width:2;"/>
<circle cx="1496.2002" cy="464.84308" r="0.57320434" style="fill:none;stroke:black;stroke-width:2;"/>
<circle cx="1512.1794" cy="464.62646" r="0.57320434" style="fill:none;stroke:black;stroke-width:2;"/>
<circle cx="1544.56" cy="464.23032" r="0.57320434" style="fill:none;stroke:black;stroke-width:2;"/>
<circle cx="1573.2402" cy="412.5119" r="0.38607946" style="fill:none;stroke:black;stroke-width:2;"/>
<circle cx="1618.2959" cy="404.78403" r="0.38607946" style="fill:none;stroke:black;stroke-width:2;"/>
<circle cx="1666.1603" cy="403.2143" r="0.38607946" style="fill:none;stroke:black;stroke-width:2;"/>
<circle cx="1651.2478" cy="364.01266" r="0.38607946" style="fill:none;stroke:black;stroke-width:2;"/>
<circle cx="1697.3389" cy="366.92844" r="0.38607946" style="fill:none;stroke:black;stroke-width:2;"/>
<circle cx="1738.9053" cy="331.64114" r="0.454907" style="fill:none;stroke:black;stroke-width:2;"/>
<circle cx="1719.5496" cy="327.8983" r="0.4656613" style="fill:none;stroke:black;stroke-width:2;"/>
<circle cx="1700.5051" cy="322.5843" r="0.41619152" style="fill:none;stroke:black;stroke-width:2;"/>
<circle cx="1680.619" cy="320.77417" r="0.569978" style="fill:none;stroke:black;stroke-width:2;"/>
<circle cx="1660.2665" cy="319.48462" r="0.454907" style="fill:none;stroke:black;stroke-width:2;"/>
<circle cx="1640.3336" cy="321.5456" r="0.57320434" style="fill:none;stroke:black;stroke-width:2;"/>
<circle cx="1621.1517" cy="317.69855" r="0.5495449" style="fill:none;stroke:black;stroke-width:2;"/>
<circle cx="1605.7219" cy="364.09592" r="0.38607946" style="fill:none;stroke:black;stroke-width:2;"/>
<circle cx="1566.2765" cy="354.16333" r="0.38607946" style="fill:none;stroke:black;stroke-width:2;"/>
<circle cx="1539.2716" cy="384.03085" r="0.38607946" style="fill:none;stroke:black;stroke-width:2;"/>
<circle cx="1524.761" cy="422.51105" r="0.38607946" style="fill:none;stroke:black;stroke-width:2;"/>
<circle cx="1477.1235" cy="421.9863" r="0.38607946" style="fill:none;stroke:black;stroke-width:2;"/>
<circle cx="1493.9678" cy="382.53967" r="0.38607946" style="fill:none;stroke:black;stroke-width:2;"/>
<circle cx="1447.1772" cy="383.28488" r="0.38607946" style="fill:none;stroke:black;stroke-width:2;"/>
<circle cx="1432.2678" cy="423.85638" r="0.38607946" style="fill:none;stroke:black;stroke-width:2;"/>
<circle cx="1400.1144" cy="391.2955" r="0.38607946" style="fill:none;stroke:black;stroke-width:2;"/>
<circle cx="1376.9375" cy="426.54526" r="0.38607946" style="fill:none;stroke:black;stroke-width:2;"/>
<circle cx="1332.6605" cy="439.9372" r="0.38607946" style="fill:none;stroke:black;stroke-width:2;"/>
<circle cx="1357.9579" cy="478.4101" r="0.4882453" style="fill:none;stroke:black;stroke-width:2;"/>
<circle cx="1347.1841" cy="486.05402" r="0.47856647" style="fill:none;stroke:black;stroke-width:2;"/>
<circle cx="1337.6748" cy="497.11707" r="0.56029916" style="fill:none;stroke:black;stroke-width:2;"/>
<circle cx="1328.8475" cy="508.12302" r="0.6076181" style="fill:none;stroke:black;stroke-width:2;"/>
<circle cx="1320.8445" cy="519.6513" r="0.55277115" style="fill:none;stroke:black;stroke-width:2;"/>
<circle cx="1314.769" cy="533.39905" r="0.5495449" style="fill:none;stroke:black;stroke-width:2;"/>
<circle cx="1352.0741" cy="533.54675" r="0.38607946" style="fill:none;stroke:black;stroke-width:2;"/>
<circle cx="1334.9373" cy="573.4186" r="0.5947129" style="fill:none;stroke:black;stroke-width:2;"/>
<circle cx="1346.0549" cy="586.0969" r="0.56245" style="fill:none;stroke:black;stroke-width:2;"/>
<circle cx="1347.0854" cy="603.0004" r="0.5495449" style="fill:none;stroke:black;stroke-width:2;"/>
<circle cx="1383.5901" cy="648.98285" r="0.38607946" style="fill:none;stroke:black;stroke-width:2;"/>
<circle cx="1322.9224" cy="674.74976" r="0.38607946" style="fill:none;stroke:black;stroke-width:2;"/>
<circle cx="1275.8842" cy="749.9448" r="0.385004" style="fill:none;stroke:black;stroke-width:2;"/>
<circle cx="1200.775" cy="753.9833" r="0.385004" style="fill:none;stroke:black;stroke-width:2;"/>
<circle cx="1118.2826" cy="754.98816" r="0.385004" style="fill:none;stroke:black;stroke-width:2;"/>
<circle cx="1108.5818" cy="677.7677" r="0.385004" style="fill:none;stroke:black;stroke-width:2;"/>
<circle cx="1120.2421" cy="602.1942" r="0.385004" style="fill:none;stroke:black;stroke-width:2;"/>
<circle cx="1108.2677" cy="520.6878" r="0.385004" style="fill:none;stroke:black;stroke-width:2;"/>
<circle cx="1106.2668" cy="430.13058" r="0.385004" style="fill:none;stroke:black;stroke-width:2;"/>
<circle cx="1108.8457" cy="335.7222" r="0.385004" style="fill:none;stroke:black;stroke-width:2;"/>
<circle cx="1166.7646" cy="388.08456" r="0.385004" style="fill:none;stroke:black;stroke-width:2;"/>
<circle cx="1232.6458" cy="366.8421" r="0.38607946" style="fill:none;stroke:black;stroke-width:2;"/>
<circle cx="1232.9072" cy="448.04074" r="0.38607946" style="fill:none;stroke:black;stroke-width:2;"/>
<circle cx="1169.238" cy="473.62524" r="0.385004" style="fill:none;stroke:black;stroke-width:2;"/>
<circle cx="1183.701" cy="546.87146" r="0.385004" style="fill:none;stroke:black;stroke-width:2;"/>
<circle cx="1219.7445" cy="609.9457" r="0.385004" style="fill:none;stroke:black;stroke-width:2;"/>
<circle cx="1179.7925" cy="677.18604" r="0.385004" style="fill:none;stroke:black;stroke-width:2;"/>
<circle cx="1256.9918" cy="667.3073" r="0.38607946" style="fill:none;stroke:black;stroke-width:2;"/>
<circle cx="1288.1431" cy="597.63306" r="0.4129652" style="fill:none;stroke:black;stroke-width:2;"/>
<circle cx="1306.4436" cy="605.2284" r="0.57320434" style="fill:none;stroke:black;stroke-width:2;"/>
<circle cx="1327.3801" cy="606.44055" r="0.57320434" style="fill:none;stroke:black;stroke-width:2;"/>
<circle cx="1303.9875" cy="574.3771" r="0.38607946" style="fill:none;stroke:black;stroke-width:2;"/>
<circle cx="1322.9946" cy="561.5647" r="0.60116553" style="fill:none;stroke:black;stroke-width:2;"/>
<circle cx="1314.5857" cy="548.1879" r="0.57750607" style="fill:none;stroke:black;stroke-width:2;"/>
<circle cx="1279.17" cy="579.56976" r="0.44415268" style="fill:none;stroke:black;stroke-width:2;"/>
<circle cx="1273.0068" cy="559.06464" r="0.49147162" style="fill:none;stroke:black;stroke-width:2;"/>
<circle cx="1266.9333" cy="538.0162" r="0.462435" style="fill:none;stroke:black;stroke-width:2;"/>
<circle cx="1262.6481" cy="516.2108" r="0.38607946" style="fill:none;stroke:black;stroke-width:2;"/>
<circle cx="1279.7574" cy="504.3852" r="0.56029916" style="fill:none;stroke:black;stroke-width:2;"/>
<circle cx="1291.4797" cy="485.51434" r="0.58073235" style="fill:none;stroke:black;stroke-width:2;"/>
<circle cx="1294.6128" cy="464.1562" r="0.57105345" style="fill:none;stroke:black;stroke-width:2;"/>
<circle cx="1288.8539" cy="442.16626" r="0.58826035" style="fill:none;stroke:black;stroke-width:2;"/>
<circle cx="1285.9482" cy="419.2569" r="0.40113547" style="fill:none;stroke:black;stroke-width:2;"/>
<circle cx="1292.4312" cy="398.76672" r="0.48932076" style="fill:none;stroke:black;stroke-width:2;"/>
<circle cx="1295.8053" cy="378.3662" r="0.58610946" style="fill:none;stroke:black;stroke-width:2;"/>
<circle cx="1288.1023" cy="358.4902" r="0.57320434" style="fill:none;stroke:black;stroke-width:2;"/>
<circle cx="1283.3132" cy="337.68542" r="0.49147162" style="fill:none;stroke:black;stroke-width:2;"/>
<circle cx="1277.2786" cy="317.27893" r="0.3903812" style="fill:none;stroke:black;stroke-width:2;"/>
<circle cx="1311.406" cy="309.03107" r="0.38607946" style="fill:none;stroke:black;stroke-width:2;"/>
<circle cx="1279.0864" cy="297.51157" r="0.40113547" style="fill:none;stroke:black;stroke-width:2;"/>
<circle cx="1284.4874" cy="277.86496" r="0.5495449" style="fill:none;stroke:black;stroke-width:2;"/>
<circle cx="1289.2281" cy="258.93207" r="0.48932076" style="fill:none;stroke:black;stroke-width:2;"/>
<circle cx="1296.481" cy="240.70456" r="0.40113547" style="fill:none;stroke:black;stroke-width:2;"/>
<circle cx="1307.7808" cy="225.43248" r="0.49147162" style="fill:none;stroke:black;stroke-width:2;"/>
<circle cx="1320.4814" cy="212.22942" r="0.47964188" style="fill:none;stroke:black;stroke-width:2;"/>
<circle cx="1335.0679" cy="203.04875" r="0.5646009" style="fill:none;stroke:black;stroke-width:2;"/>
<circle cx="1350.5854" cy="193.67746" r="0.462435" style="fill:none;stroke:black;stroke-width:2;"/>
<circle cx="1367.6758" cy="188.54056" r="0.44307727" style="fill:none;stroke:black;stroke-width:2;"/>
<circle cx="1386.1847" cy="188.64532" r="0.41619152" style="fill:none;stroke:black;stroke-width:2;"/>
<circle cx="1401.551" cy="197.46567" r="0.41619152" style="fill:none;stroke:black;stroke-width:2;"/>
<circle cx="1396.3081" cy="213.19055" r="0.5646009" style="fill:none;stroke:black;stroke-width:2;"/>
<circle cx="1386.0706" cy="225.25781" r="0.6194478" style="fill:none;stroke:black;stroke-width:2;"/>
<circle cx="1376.4347" cy="236.68536" r="0.6194478" style="fill:none;stroke:black;stroke-width:2;"/>
<circle cx="1365.3834" cy="246.24448" r="0.5904112" style="fill:none;stroke:black;stroke-width:2;"/>
<circle cx="1356.1143" cy="258.00018" r="0.6108444" style="fill:none;stroke:black;stroke-width:2;"/>
<circle cx="1324.4465" cy="254.94641" r="0.38607946" style="fill:none;stroke:black;stroke-width:2;"/>
<circle cx="1348.9033" cy="270.93564" r="0.5893358" style="fill:none;stroke:black;stroke-width:2;"/>
<circle cx="1343.2396" cy="284.29767" r="0.5495449" style="fill:none;stroke:black;stroke-width:2;"/>
<circle cx="1340.9573" cy="297.61118" r="0.57320434" style="fill:none;stroke:black;stroke-width:2;"/>
<circle cx="1344.1127" cy="311.13217" r="0.5646009" style="fill:none;stroke:black;stroke-width:2;"/>
<circle cx="1369.5372" cy="317.30487" r="0.569978" style="fill:none;stroke:black;stroke-width:2;"/>
<circle cx="1397.1516" cy="309.60583" r="0.5796569" style="fill:none;stroke:black;stroke-width:2;"/>
<circle cx="1383.292" cy="313.67923" r="0.569978" style="fill:none;stroke:black;stroke-width:2;"/>
<circle cx="1355.5511" cy="318.18704" r="0.6000901" style="fill:none;stroke:black;stroke-width:2;"/>
<circle cx="1329.6663" cy="352.41687" r="0.38607946" style="fill:none;stroke:black;stroke-width:2;"/>
<circle cx="1342.5024" cy="396.20728" r="0.38607946" style="fill:none;stroke:black;stroke-width:2;"/>
<circle cx="1372.9259" cy="360.81284" r="0.38607946" style="fill:none;stroke:black;stroke-width:2;"/>
<circle cx="1419.6274" cy="348.011" r="0.38607946" style="fill:none;stroke:black;stroke-width:2;"/>
<circle cx="1410.9309" cy="302.9085" r="0.40436178" style="fill:none;stroke:black;stroke-width:2;"/>
<circle cx="1426.3604" cy="302.26813" r="0.4656613" style="fill:none;stroke:black;stroke-width:2;"/>
<circle cx="1443.1155" cy="301.51938" r="0.57320434" style="fill:none;stroke:black;stroke-width:2;"/>
<circle cx="1459.8828" cy="299.643" r="0.45813328" style="fill:none;stroke:black;stroke-width:2;"/>
<circle cx="1468.6443" cy="343.50568" r="0.38607946" style="fill:none;stroke:black;stroke-width:2;"/>
<circle cx="1477.0674" cy="299.86166" r="0.45813328" style="fill:none;stroke:black;stroke-width:2;"/>
<circle cx="1493.47" cy="302.12442" r="0.57320434" style="fill:none;stroke:black;stroke-width:2;"/>
<circle cx="1510.7063" cy="301.7956" r="0.45813328" style="fill:none;stroke:black;stroke-width:2;"/>
<circle cx="1518.1569" cy="344.5907" r="0.38607946" style="fill:none;stroke:black;stroke-width:2;"/>
<circle cx="1528.2627" cy="302.89722" r="0.4656613" style="fill:none;stroke:black;stroke-width:2;"/>
<circle cx="1546.4319" cy="306.04248" r="0.57320434" style="fill:none;stroke:black;stroke-width:2;"/>
<circle cx="1565.273" cy="307.8565" r="0.4656613" style="fill:none;stroke:black;stroke-width:2;"/>
<circle cx="1583.9197" cy="309.4521" r="0.4656613" style="fill:none;stroke:black;stroke-width:2;"/>
<circle cx="1602.4268" cy="314.02957" r="0.5495449" style="fill:none;stroke:black;stroke-width:2;"/>
<circle cx="1621.6545" cy="247.77902" r="0.38607946" style="fill:none;stroke:black;stroke-width:2;"/>
<circle cx="1559.6135" cy="242.79318" r="0.38607946" style="fill:none;stroke:black;stroke-width:2;"/>
<circle cx="1497.7311" cy="238.28787" r="0.38607946" style="fill:none;stroke:black;stroke-width:2;"/>
<circle cx="1440.0193" cy="242.52084" r="0.38607946" style="fill:none;stroke:black;stroke-width:2;"/>
<circle cx="1465.0767" cy="180.01768" r="0.38607946" style="fill:none;stroke:black;stroke-width:2;"/>
<circle cx="1481.3335" cy="119.80574" r="0.38607946" style="fill:none;stroke:black;stroke-width:2;"/>
<circle cx="1419.4652" cy="131.69064" r="0.38607946" style="fill:none;stroke:black;stroke-width:2;"/>
<circle cx="1359.5037" cy="117.98937" r="0.38607946" style="fill:none;stroke:black;stroke-width:2;"/>
<circle cx="1305.0682" cy="142.44162" r="0.38607946" style="fill:none;stroke:black;stroke-width:2;"/>
<circle cx="1251.3639" cy="114.94808" r="0.38607946" style="fill:none;stroke:black;stroke-width:2;"/>
<circle cx="1251.0259" cy="183.27945" r="0.38607946" style="fill:none;stroke:black;stroke-width:2;"/>
<circle cx="1232.377" cy="250.2558" r="0.38607946" style="fill:none;stroke:black;stroke-width:2;"/>
<circle cx="1178.7985" cy="299.34625" r="0.385004" style="fill:none;stroke:black;stroke-width:2;"/>
<circle cx="1110.5151" cy="245.53703" r="0.385004" style="fill:none;stroke:black;stroke-width:2;"/>
<circle cx="1171.9995" cy="199.32939" r="0.385004" style="fill:none;stroke:black;stroke-width:2;"/>
<circle cx="1107.2809" cy="147.74532" r="0.385004" style="fill:none;stroke:black;stroke-width:2;"/>
<circle cx="1175.9352" cy="115.33449" r="0.385004" style="fill:none;stroke:black;stroke-width:2;"/>
<circle cx="1117.867" cy="51.57077" r="0.385004" style="fill:none;stroke:black;stroke-width:2;"/>
<circle cx="1213.2429" cy="42.93594" r="0.385004" style="fill:none;stroke:black;stroke-width:2;"/>
<circle cx="1310.18" cy="46.857445" r="0.385004" style="fill:none;stroke:black;stroke-width:2;"/>
<circle cx="1405.4553" cy="47.139786" r="0.385004" style="fill:none;stroke:black;stroke-width:2;"/>
<circle cx="1492.6697" cy="45.43266" r="0.385004" style="fill:none;stroke:black;stroke-width:2;"/>
<circle cx="1576.1484" cy="47.465454" r="0.385004" style="fill:none;stroke:black;stroke-width:2;"/>
<circle cx="1547.8058" cy="124.89668" r="0.38607946" style="fill:none;stroke:black;stroke-width:2;"/>
<circle cx="1527.5325" cy="183.07315" r="0.38607946" style="fill:none;stroke:black;stroke-width:2;"/>
<circle cx="1591.992" cy="183.94708" r="0.38607946" style="fill:none;stroke:black;stroke-width:2;"/>
<circle cx="1619.5205" cy="124.41961" r="0.38607946" style="fill:none;stroke:black;stroke-width:2;"/>
<circle cx="1690.861" cy="126.583466" r="0.38607946" style="fill:none;stroke:black;stroke-width:2;"/>
<circle cx="1660.6228" cy="47.57574" r="0.385004" style="fill:none;stroke:black;stroke-width:2;"/>
<circle cx="1744.5376" cy="49.303772" r="0.385004" style="fill:none;stroke:black;stroke-width:2;"/>
<circle cx="1826.5526" cy="49.332497" r="0.385004" style="fill:none;stroke:black;stroke-width:2;"/>
<circle cx="1908.6484" cy="46.216545" r="0.385004" style="fill:none;stroke:black;stroke-width:2;"/>
<circle cx="1885.7261" cy="123.19113" r="0.38607946" style="fill:none;stroke:black;stroke-width:2;"/>
<circle cx="1952.6707" cy="120.58446" r="0.38607946" style="fill:none;stroke:black;stroke-width:2;"/>
<circle cx="1934.9946" cy="180.42316" r="0.38607946" style="fill:none;stroke:black;stroke-width:2;"/>
<circle cx="2022.9664" cy="257.0134" r="0.385004" style="fill:none;stroke:black;stroke-width:2;"/>
<circle cx="2016.407" cy="180.63608" r="0.385004" style="fill:none;stroke:black;stroke-width:2;"/>
<circle cx="2027.0614" cy="104.665054" r="0.385004" style="fill:none;stroke:black;stroke-width:2;"/>
<circle cx="1992.1902" cy="42.768295" r="0.385004" style="fill:none;stroke:black;stroke-width:2;"/>
<circle cx="2083.4246" cy="47.383614" r="0.385004" style="fill:none;stroke:black;stroke-width:2;"/>
<circle cx="2092.0857" cy="134.14398" r="0.385004" style="fill:none;stroke:black;stroke-width:2;"/>
<circle cx="2090.3716" cy="215.9365" r="0.385004" style="fill:none;stroke:black;stroke-width:2;"/>
<circle cx="2090.5198" cy="297.9819" r="0.385004" style="fill:none;stroke:black;stroke-width:2;"/>
<circle cx="2025.8893" cy="337.913" r="0.385004" style="fill:none;stroke:black;stroke-width:2;"/>
<circle cx="1951.5945" cy="366.83124" r="0.38607946" style="fill:none;stroke:black;stroke-width:2;"/>
<circle cx="1961.5935" cy="302.04318" r="0.38607946" style="fill:none;stroke:black;stroke-width:2;"/>
<circle cx="1906.4167" cy="303.68167" r="0.38607946" style="fill:none;stroke:black;stroke-width:2;"/>
<circle cx="1943.2843" cy="240.01749" r="0.38607946" style="fill:none;stroke:black;stroke-width:2;"/>
<circle cx="1874.1542" cy="234.48723" r="0.38607946" style="fill:none;stroke:black;stroke-width:2;"/>
<circle cx="1862.9128" cy="180.06291" r="0.38607946" style="fill:none;stroke:black;stroke-width:2;"/>
<circle cx="1818.9336" cy="131.56514" r="0.38607946" style="fill:none;stroke:black;stroke-width:2;"/>
<circle cx="1757.1346" cy="133.14273" r="0.38607946" style="fill:none;stroke:black;stroke-width:2;"/>
<circle cx="1657.9604" cy="185.2815" r="0.38607946" style="fill:none;stroke:black;stroke-width:2;"/>
<circle cx="1725.8717" cy="192.1618" r="0.38607946" style="fill:none;stroke:black;stroke-width:2;"/>
<circle cx="1796.0221" cy="199.8786" r="0.38607946" style="fill:none;stroke:black;stroke-width:2;"/>
<circle cx="1849.8247" cy="285.55286" r="0.38607946" style="fill:none;stroke:black;stroke-width:2;"/>
<circle cx="1798.6439" cy="265.84012" r="0.38607946" style="fill:none;stroke:black;stroke-width:2;"/>
<circle cx="1741.8773" cy="259.32758" r="0.38607946" style="fill:none;stroke:black;stroke-width:2;"/>
<circle cx="1682.0563" cy="250.49149" r="0.38607946" style="fill:none;stroke:black;stroke-width:2;"/>
</g></g></svg>
