<?xml version="1.0" encoding="UTF-8" standalone="no"?>
<!-- Created for Inkscape (http://www.inkscape.org/) -->

<svg
   xmlns:dc="http://purl.org/dc/elements/1.1/"
   xmlns:cc="http://creativecommons.org/ns#"
   xmlns:rdf="http://www.w3.org/1999/02/22-rdf-syntax-ns#"
   xmlns:svg="http://www.w3.org/2000/svg"
   xmlns="http://www.w3.org/2000/svg"
   xmlns:sodipodi="http://sodipodi.sourceforge.net/DTD/sodipodi-0.dtd"
   xmlns:inkscape="http://www.inkscape.org/namespaces/inkscape"
   width="3200"
   height="800"
   id="svg2985"
   version="1.1"
   inkscape:version="0.48.1 r9760">
  <defs
     id="defs2987" />
  <sodipodi:namedview
     id="base"
     pagecolor="#ffffff"
     bordercolor="#666666"
     borderopacity="1.0"
     inkscape:pageopacity="0.0"
     inkscape:pageshadow="2"
     inkscape:zoom="0.35"
     inkscape:cx="1600"
     inkscape:cy="400"
     inkscape:document-units="px"
     inkscape:current-layer="layer1"
     showgrid="false"  />
  <metadata
     id="metadata2990">
    <rdf:RDF>
      <cc:Work
         rdf:about="">
        <dc:format>image/svg+xml</dc:format>
        <dc:type
           rdf:resource="http://purl.org/dc/dcmitype/StillImage" />
        <dc:title />
      </cc:Work>
    </rdf:RDF>
  </metadata>
  <g
     inkscape:label="Layer 1"
     inkscape:groupmode="layer"
     id="layer1"> 
     <g>
<circle cx="1812.7709" cy="549.20825" r="0.84684885" style="fill:none;stroke:black;stroke-width:2;"/>
<circle cx="1781.5948" cy="556.3978" r="0.8407564" style="fill:none;stroke:black;stroke-width:2;"/>
<circle cx="1767.789" cy="523.5545" r="0.95042026" style="fill:none;stroke:black;stroke-width:2;"/>
<circle cx="1771.1354" cy="497.5736" r="0.9950981" style="fill:none;stroke:black;stroke-width:2;"/>
<circle cx="1740.6747" cy="525.565" r="0.9544819" style="fill:none;stroke:black;stroke-width:2;"/>
<circle cx="1755.7329" cy="548.868" r="0.8407564" style="fill:none;stroke:black;stroke-width:2;"/>
<circle cx="1733.9396" cy="560.72675" r="0.9483895" style="fill:none;stroke:black;stroke-width:2;"/>
<circle cx="1714.2693" cy="538.6391" r="0.95854354" style="fill:none;stroke:black;stroke-width:2;"/>
<circle cx="1708.8184" cy="564.6392" r="0.9524511" style="fill:none;stroke:black;stroke-width:2;"/>
<circle cx="1724.1519" cy="588.67523" r="0.932143" style="fill:none;stroke:black;stroke-width:2;"/>
<circle cx="1692.1736" cy="582.98596" r="0.86309534" style="fill:none;stroke:black;stroke-width:2;"/>
<circle cx="1699.08" cy="608.6356" r="0.90371156" style="fill:none;stroke:black;stroke-width:2;"/>
<circle cx="1728.3131" cy="615.776" r="0.91995806" style="fill:none;stroke:black;stroke-width:2;"/>
<circle cx="1735.004" cy="644.0696" r="0.91183484" style="fill:none;stroke:black;stroke-width:2;"/>
<circle cx="1763.3657" cy="656.1931" r="0.83263314" style="fill:none;stroke:black;stroke-width:2;"/>
<circle cx="1739.875" cy="675.89075" r="0.90168077" style="fill:none;stroke:black;stroke-width:2;"/>
<circle cx="1738.5305" cy="709.13074" r="0.89965" style="fill:none;stroke:black;stroke-width:2;"/>
<circle cx="1790.325" cy="740.0903" r="0.844818" style="fill:none;stroke:black;stroke-width:2;"/>
<circle cx="1760.686" cy="735.20935" r="0.85497206" style="fill:none;stroke:black;stroke-width:2;"/>
<circle cx="1731.2041" cy="740.3706" r="0.9240197" style="fill:none;stroke:black;stroke-width:2;"/>
<circle cx="1700.7065" cy="741.50336" r="0.877311" style="fill:none;stroke:black;stroke-width:2;"/>
<circle cx="1712.5997" cy="716.93555" r="0.95042026" style="fill:none;stroke:black;stroke-width:2;"/>
<circle cx="1714.9028" cy="687.9345" r="0.9727592" style="fill:none;stroke:black;stroke-width:2;"/>
<circle cx="1710.7478" cy="661.22217" r="0.9524511" style="fill:none;stroke:black;stroke-width:2;"/>
<circle cx="1704.4147" cy="634.58435" r="0.8894959" style="fill:none;stroke:black;stroke-width:2;"/>
<circle cx="1678.9407" cy="648.6306" r="0.8427872" style="fill:none;stroke:black;stroke-width:2;"/>
<circle cx="1682.2002" cy="675.0924" r="0.877311" style="fill:none;stroke:black;stroke-width:2;"/>
<circle cx="1689.1246" cy="698.3297" r="0.92808133" style="fill:none;stroke:black;stroke-width:2;"/>
<circle cx="1679.3657" cy="719.0859" r="0.9057424" style="fill:none;stroke:black;stroke-width:2;"/>
<circle cx="1669.62" cy="742.4634" r="0.9402662" style="fill:none;stroke:black;stroke-width:2;"/>
<circle cx="1642.028" cy="741.43835" r="0.98088247" style="fill:none;stroke:black;stroke-width:2;"/>
<circle cx="1650.8687" cy="717.145" r="0.96463597" style="fill:none;stroke:black;stroke-width:2;"/>
<circle cx="1654.953" cy="691.62225" r="0.94229704" style="fill:none;stroke:black;stroke-width:2;"/>
<circle cx="1651.5142" cy="662.63025" r="0.95042026" style="fill:none;stroke:black;stroke-width:2;"/>
<circle cx="1646.7144" cy="638.0091" r="0.99712896" style="fill:none;stroke:black;stroke-width:2;"/>
<circle cx="1670.1306" cy="620.44293" r="0.90168077" style="fill:none;stroke:black;stroke-width:2;"/>
<circle cx="1667.201" cy="590.2075" r="0.9158965" style="fill:none;stroke:black;stroke-width:2;"/>
<circle cx="1642.3103" cy="610.6782" r="0.97479004" style="fill:none;stroke:black;stroke-width:2;"/>
<circle cx="1614.7932" cy="603.9437" r="0.9930673" style="fill:none;stroke:black;stroke-width:2;"/>
<circle cx="1618.4624" cy="632.16" r="0.9565127" style="fill:none;stroke:black;stroke-width:2;"/>
<circle cx="1607.5276" cy="663.3025" r="0.9402662" style="fill:none;stroke:black;stroke-width:2;"/>
<circle cx="1623.8486" cy="679.8069" r="0.96869755" style="fill:none;stroke:black;stroke-width:2;"/>
<circle cx="1617.8885" cy="712.349" r="0.8834034" style="fill:none;stroke:black;stroke-width:2;"/>
<circle cx="1614.6912" cy="745.4172" r="0.85497206" style="fill:none;stroke:black;stroke-width:2;"/>
<circle cx="1583.649" cy="739.0461" r="0.834664" style="fill:none;stroke:black;stroke-width:2;"/>
<circle cx="1575.1768" cy="708.35547" r="0.88137263" style="fill:none;stroke:black;stroke-width:2;"/>
<circle cx="1558.2089" cy="683.8518" r="0.9565127" style="fill:none;stroke:black;stroke-width:2;"/>
<circle cx="1576.5071" cy="674.54895" r="0.9402662" style="fill:none;stroke:black;stroke-width:2;"/>
<circle cx="1557.813" cy="653.3239" r="0.9382354" style="fill:none;stroke:black;stroke-width:2;"/>
<circle cx="1525.1398" cy="682.8357" r="1.0032214" style="fill:none;stroke:black;stroke-width:2;"/>
<circle cx="1534.4785" cy="708.68616" r="0.8691878" style="fill:none;stroke:black;stroke-width:2;"/>
<circle cx="1508.5996" cy="710.31366" r="0.86512613" style="fill:none;stroke:black;stroke-width:2;"/>
<circle cx="1482.8165" cy="714.6644" r="0.8509104" style="fill:none;stroke:black;stroke-width:2;"/>
<circle cx="1520.1171" cy="740.8217" r="0.9158965" style="fill:none;stroke:black;stroke-width:2;"/>
<circle cx="1498.133" cy="740.33246" r="0.9463586" style="fill:none;stroke:black;stroke-width:2;"/>
<circle cx="1474.4606" cy="740.44006" r="0.90371156" style="fill:none;stroke:black;stroke-width:2;"/>
<circle cx="1450.4814" cy="742.6344" r="0.932143" style="fill:none;stroke:black;stroke-width:2;"/>
<circle cx="1449.1575" cy="719.44696" r="0.9158965" style="fill:none;stroke:black;stroke-width:2;"/>
<circle cx="1434.7244" cy="697.58887" r="0.932143" style="fill:none;stroke:black;stroke-width:2;"/>
<circle cx="1453.5068" cy="652.1781" r="0.83263314" style="fill:none;stroke:black;stroke-width:2;"/>
<circle cx="1422.9067" cy="667.1335" r="0.92605054" style="fill:none;stroke:black;stroke-width:2;"/>
<circle cx="1406.4675" cy="649.1025" r="0.9301121" style="fill:none;stroke:black;stroke-width:2;"/>
<circle cx="1403.6271" cy="624.67163" r="0.9605743" style="fill:none;stroke:black;stroke-width:2;"/>
<circle cx="1379.3936" cy="628.37866" r="0.9057424" style="fill:none;stroke:black;stroke-width:2;"/>
<circle cx="1358.7258" cy="646.64" r="0.88543427" style="fill:none;stroke:black;stroke-width:2;"/>
<circle cx="1381.9691" cy="654.3141" r="0.8976191" style="fill:none;stroke:black;stroke-width:2;"/>
<circle cx="1391.198" cy="677.2939" r="0.8732494" style="fill:none;stroke:black;stroke-width:2;"/>
<circle cx="1410.5493" cy="690.8165" r="0.8976191" style="fill:none;stroke:black;stroke-width:2;"/>
<circle cx="1415.8425" cy="718.22845" r="0.8732494" style="fill:none;stroke:black;stroke-width:2;"/>
<circle cx="1423.8884" cy="741.5641" r="0.8427872" style="fill:none;stroke:black;stroke-width:2;"/>
<circle cx="1396.9758" cy="739.8362" r="0.909804" style="fill:none;stroke:black;stroke-width:2;"/>
<circle cx="1391.1272" cy="709.2019" r="0.8874651" style="fill:none;stroke:black;stroke-width:2;"/>
<circle cx="1371.2664" cy="744.036" r="0.92808133" style="fill:none;stroke:black;stroke-width:2;"/>
<circle cx="1337.5049" cy="739.4075" r="0.9565127" style="fill:none;stroke:black;stroke-width:2;"/>
<circle cx="1368.8871" cy="722.27905" r="0.8915267" style="fill:none;stroke:black;stroke-width:2;"/>
<circle cx="1367.0879" cy="697.37756" r="0.91792727" style="fill:none;stroke:black;stroke-width:2;"/>
<circle cx="1328.4718" cy="679.61206" r="0.8894959" style="fill:none;stroke:black;stroke-width:2;"/>
<circle cx="1321.9294" cy="647.84753" r="0.9077732" style="fill:none;stroke:black;stroke-width:2;"/>
<circle cx="1324.2268" cy="612.2986" r="0.8691878" style="fill:none;stroke:black;stroke-width:2;"/>
<circle cx="1302.645" cy="587.9469" r="0.8529413" style="fill:none;stroke:black;stroke-width:2;"/>
<circle cx="1324.6416" cy="578.10144" r="0.9240197" style="fill:none;stroke:black;stroke-width:2;"/>
<circle cx="1350.8115" cy="589.1424" r="0.844818" style="fill:none;stroke:black;stroke-width:2;"/>
<circle cx="1372.2533" cy="574.28156" r="0.96666676" style="fill:none;stroke:black;stroke-width:2;"/>
<circle cx="1375.0859" cy="601.8233" r="0.9219889" style="fill:none;stroke:black;stroke-width:2;"/>
<circle cx="1398.7542" cy="600.4967" r="0.9707284" style="fill:none;stroke:black;stroke-width:2;"/>
<circle cx="1400.9268" cy="578.69055" r="0.94229704" style="fill:none;stroke:black;stroke-width:2;"/>
<circle cx="1390.3743" cy="557.59125" r="0.96463597" style="fill:none;stroke:black;stroke-width:2;"/>
<circle cx="1389.4424" cy="535.19354" r="0.9950981" style="fill:none;stroke:black;stroke-width:2;"/>
<circle cx="1366.2963" cy="544.698" r="0.94229704" style="fill:none;stroke:black;stroke-width:2;"/>
<circle cx="1343.2544" cy="558.09546" r="0.9158965" style="fill:none;stroke:black;stroke-width:2;"/>
<circle cx="1316.9819" cy="549.3678" r="0.93620455" style="fill:none;stroke:black;stroke-width:2;"/>
<circle cx="1277.3962" cy="522.8356" r="0.86106455" style="fill:none;stroke:black;stroke-width:2;"/>
<circle cx="1284.7084" cy="491.21204" r="0.932143" style="fill:none;stroke:black;stroke-width:2;"/>
<circle cx="1255.9526" cy="433.43723" r="0.9219889" style="fill:none;stroke:black;stroke-width:2;"/>
<circle cx="1242.309" cy="375.5243" r="0.91183484" style="fill:none;stroke:black;stroke-width:2;"/>
<circle cx="1236.934" cy="349.26654" r="0.9077732" style="fill:none;stroke:black;stroke-width:2;"/>
<circle cx="1234.5286" cy="322.33643" r="0.9057424" style="fill:none;stroke:black;stroke-width:2;"/>
<circle cx="1244.0759" cy="268.4578" r="0.9382354" style="fill:none;stroke:black;stroke-width:2;"/>
<circle cx="1244.735" cy="238.71902" r="0.9869749" style="fill:none;stroke:black;stroke-width:2;"/>
<circle cx="1220.0367" cy="254.99179" r="0.8894959" style="fill:none;stroke:black;stroke-width:2;"/>
<circle cx="1214.2805" cy="225.9049" r="1.0235295" style="fill:none;stroke:black;stroke-width:2;"/>
<circle cx="1238.3309" cy="210.5106" r="1.029622" style="fill:none;stroke:black;stroke-width:2;"/>
<circle cx="1264.6222" cy="216.41478" r="0.9565127" style="fill:none;stroke:black;stroke-width:2;"/>
<circle cx="1276.1991" cy="192.12602" r="0.99915975" style="fill:none;stroke:black;stroke-width:2;"/>
<circle cx="1246.7302" cy="182.48795" r="0.9301121" style="fill:none;stroke:black;stroke-width:2;"/>
<circle cx="1279.3854" cy="165.27963" r="0.98088247" style="fill:none;stroke:black;stroke-width:2;"/>
<circle cx="1270.6818" cy="137.03348" r="0.8407564" style="fill:none;stroke:black;stroke-width:2;"/>
<circle cx="1252.6772" cy="106.331566" r="0.9788516" style="fill:none;stroke:black;stroke-width:2;"/>
<circle cx="1245.5715" cy="144.9453" r="1.0214987" style="fill:none;stroke:black;stroke-width:2;"/>
<circle cx="1224.2343" cy="163.42905" r="0.96666676" style="fill:none;stroke:black;stroke-width:2;"/>
<circle cx="1201.1111" cy="144.05225" r="1.0133754" style="fill:none;stroke:black;stroke-width:2;"/>
<circle cx="1172.1713" cy="151.63843" r="0.9788516" style="fill:none;stroke:black;stroke-width:2;"/>
<circle cx="1165.507" cy="185.60284" r="0.877311" style="fill:none;stroke:black;stroke-width:2;"/>
<circle cx="1191.672" cy="178.48428" r="0.96869755" style="fill:none;stroke:black;stroke-width:2;"/>
<circle cx="1214.3589" cy="196.55719" r="1.0011905" style="fill:none;stroke:black;stroke-width:2;"/>
<circle cx="1184.6465" cy="206.78667" r="1.0214987" style="fill:none;stroke:black;stroke-width:2;"/>
<circle cx="1187.9146" cy="230.88882" r="0.9768208" style="fill:none;stroke:black;stroke-width:2;"/>
<circle cx="1193.6569" cy="256.351" r="0.9402662" style="fill:none;stroke:black;stroke-width:2;"/>
<circle cx="1180.5067" cy="276.3344" r="0.834664" style="fill:none;stroke:black;stroke-width:2;"/>
<circle cx="1178.9169" cy="347.7127" r="0.85497206" style="fill:none;stroke:black;stroke-width:2;"/>
<circle cx="1225.7473" cy="403.9161" r="0.8570029" style="fill:none;stroke:black;stroke-width:2;"/>
<circle cx="1269.1422" cy="466.81177" r="0.83872557" style="fill:none;stroke:black;stroke-width:2;"/>
<circle cx="1319.6879" cy="478.33545" r="0.9930673" style="fill:none;stroke:black;stroke-width:2;"/>
<circle cx="1336.2075" cy="449.33786" r="0.94229704" style="fill:none;stroke:black;stroke-width:2;"/>
<circle cx="1343.012" cy="497.39844" r="0.9869749" style="fill:none;stroke:black;stroke-width:2;"/>
<circle cx="1322.5145" cy="514.5582" r="0.9565127" style="fill:none;stroke:black;stroke-width:2;"/>
<circle cx="1342.3936" cy="529.97766" r="0.96869755" style="fill:none;stroke:black;stroke-width:2;"/>
<circle cx="1364.8225" cy="514.199" r="0.9849441" style="fill:none;stroke:black;stroke-width:2;"/>
<circle cx="1376.6764" cy="487.69052" r="0.9950981" style="fill:none;stroke:black;stroke-width:2;"/>
<circle cx="1351.3259" cy="473.64856" r="0.9890057" style="fill:none;stroke:black;stroke-width:2;"/>
<circle cx="1373.9043" cy="460.2634" r="1.0052522" style="fill:none;stroke:black;stroke-width:2;"/>
<circle cx="1398.4575" cy="459.98825" r="0.98291326" style="fill:none;stroke:black;stroke-width:2;"/>
<circle cx="1424.0526" cy="460.89868" r="0.99915975" style="fill:none;stroke:black;stroke-width:2;"/>
<circle cx="1404.9869" cy="483.358" r="1.0113447" style="fill:none;stroke:black;stroke-width:2;"/>
<circle cx="1414.3821" cy="504.44012" r="0.9768208" style="fill:none;stroke:black;stroke-width:2;"/>
<circle cx="1390.2031" cy="510.9342" r="1.0032214" style="fill:none;stroke:black;stroke-width:2;"/>
<circle cx="1413.8234" cy="529.6691" r="0.94432783" style="fill:none;stroke:black;stroke-width:2;"/>
<circle cx="1416.7225" cy="556.68024" r="0.9382354" style="fill:none;stroke:black;stroke-width:2;"/>
<circle cx="1444.6934" cy="564.37854" r="0.91995806" style="fill:none;stroke:black;stroke-width:2;"/>
<circle cx="1459.3783" cy="585.82874" r="0.9382354" style="fill:none;stroke:black;stroke-width:2;"/>
<circle cx="1429.7979" cy="583.70215" r="0.9565127" style="fill:none;stroke:black;stroke-width:2;"/>
<circle cx="1422.9641" cy="608.5343" r="0.84887964" style="fill:none;stroke:black;stroke-width:2;"/>
<circle cx="1447.7827" cy="608.8912" r="0.9402662" style="fill:none;stroke:black;stroke-width:2;"/>
<circle cx="1462.4674" cy="628.1347" r="0.96463597" style="fill:none;stroke:black;stroke-width:2;"/>
<circle cx="1482.7554" cy="616.4679" r="0.9382354" style="fill:none;stroke:black;stroke-width:2;"/>
<circle cx="1485.0571" cy="643.6825" r="1.0011905" style="fill:none;stroke:black;stroke-width:2;"/>
<circle cx="1479.5903" cy="667.2958" r="0.834664" style="fill:none;stroke:black;stroke-width:2;"/>
<circle cx="1496.5114" cy="684.8769" r="0.89965" style="fill:none;stroke:black;stroke-width:2;"/>
<circle cx="1510.9836" cy="657.6002" r="0.99915975" style="fill:none;stroke:black;stroke-width:2;"/>
<circle cx="1507.5862" cy="631.69403" r="0.97479004" style="fill:none;stroke:black;stroke-width:2;"/>
<circle cx="1532.8638" cy="630.82886" r="0.93620455" style="fill:none;stroke:black;stroke-width:2;"/>
<circle cx="1561.7297" cy="614.5834" r="0.89355755" style="fill:none;stroke:black;stroke-width:2;"/>
<circle cx="1536.4661" cy="594.03894" r="0.9707284" style="fill:none;stroke:black;stroke-width:2;"/>
<circle cx="1511.7002" cy="605.00525" r="0.9605743" style="fill:none;stroke:black;stroke-width:2;"/>
<circle cx="1497.6833" cy="584.64954" r="0.9849441" style="fill:none;stroke:black;stroke-width:2;"/>
<circle cx="1516.6226" cy="566.51086" r="1.0011905" style="fill:none;stroke:black;stroke-width:2;"/>
<circle cx="1510.8418" cy="535.6685" r="0.9626051" style="fill:none;stroke:black;stroke-width:2;"/>
<circle cx="1517.2477" cy="504.0747" r="0.88543427" style="fill:none;stroke:black;stroke-width:2;"/>
<circle cx="1494.0703" cy="483.7293" r="0.8915267" style="fill:none;stroke:black;stroke-width:2;"/>
<circle cx="1465.07" cy="502.79794" r="0.9565127" style="fill:none;stroke:black;stroke-width:2;"/>
<circle cx="1487.8073" cy="520.95526" r="0.9768208" style="fill:none;stroke:black;stroke-width:2;"/>
<circle cx="1491.9493" cy="549.3543" r="0.9950981" style="fill:none;stroke:black;stroke-width:2;"/>
<circle cx="1478.2993" cy="568.89154" r="0.9930673" style="fill:none;stroke:black;stroke-width:2;"/>
<circle cx="1464.5215" cy="549.8812" r="0.9402662" style="fill:none;stroke:black;stroke-width:2;"/>
<circle cx="1464.2631" cy="527.1273" r="0.9077732" style="fill:none;stroke:black;stroke-width:2;"/>
<circle cx="1438.8473" cy="539.1171" r="0.94432783" style="fill:none;stroke:black;stroke-width:2;"/>
<circle cx="1439.7931" cy="513.0876" r="0.93620455" style="fill:none;stroke:black;stroke-width:2;"/>
<circle cx="1439.1041" cy="485.02625" r="0.9382354" style="fill:none;stroke:black;stroke-width:2;"/>
<circle cx="1472.2869" cy="467.63034" r="0.9483895" style="fill:none;stroke:black;stroke-width:2;"/>
<circle cx="1461.4006" cy="444.3991" r="1.0133754" style="fill:none;stroke:black;stroke-width:2;"/>
<circle cx="1491.2614" cy="453.1943" r="0.92605054" style="fill:none;stroke:black;stroke-width:2;"/>
<circle cx="1490.6188" cy="428.71777" r="0.91792727" style="fill:none;stroke:black;stroke-width:2;"/>
<circle cx="1466.1765" cy="420.4162" r="0.9890057" style="fill:none;stroke:black;stroke-width:2;"/>
<circle cx="1480.489" cy="402.4024" r="0.9402662" style="fill:none;stroke:black;stroke-width:2;"/>
<circle cx="1489.6031" cy="376.31137" r="0.8590337" style="fill:none;stroke:black;stroke-width:2;"/>
<circle cx="1463.7026" cy="361.31052" r="0.9077732" style="fill:none;stroke:black;stroke-width:2;"/>
<circle cx="1439.0662" cy="352.8615" r="1.0011905" style="fill:none;stroke:black;stroke-width:2;"/>
<circle cx="1434.0986" cy="325.45288" r="0.83060235" style="fill:none;stroke:black;stroke-width:2;"/>
<circle cx="1456.8851" cy="312.40234" r="0.9707284" style="fill:none;stroke:black;stroke-width:2;"/>
<circle cx="1466.8861" cy="335.84082" r="0.9950981" style="fill:none;stroke:black;stroke-width:2;"/>
<circle cx="1492.3372" cy="349.68478" r="0.8732494" style="fill:none;stroke:black;stroke-width:2;"/>
<circle cx="1515.2754" cy="334.64044" r="0.89965" style="fill:none;stroke:black;stroke-width:2;"/>
<circle cx="1516.9086" cy="307.24515" r="1.0154063" style="fill:none;stroke:black;stroke-width:2;"/>
<circle cx="1490.5115" cy="317.88092" r="1.007283" style="fill:none;stroke:black;stroke-width:2;"/>
<circle cx="1478.8406" cy="294.29004" r="0.9950981" style="fill:none;stroke:black;stroke-width:2;"/>
<circle cx="1500.4618" cy="278.88263" r="0.9138656" style="fill:none;stroke:black;stroke-width:2;"/>
<circle cx="1477.3889" cy="264.93106" r="0.9565127" style="fill:none;stroke:black;stroke-width:2;"/>
<circle cx="1491.8433" cy="240.65134" r="1.0255604" style="fill:none;stroke:black;stroke-width:2;"/>
<circle cx="1517.2008" cy="255.23792" r="1.0194678" style="fill:none;stroke:black;stroke-width:2;"/>
<circle cx="1518.7537" cy="228.5742" r="1.0052522" style="fill:none;stroke:black;stroke-width:2;"/>
<circle cx="1547.9097" cy="223.99918" r="0.9788516" style="fill:none;stroke:black;stroke-width:2;"/>
<circle cx="1548.6195" cy="252.29204" r="1.0235295" style="fill:none;stroke:black;stroke-width:2;"/>
<circle cx="1574.4816" cy="236.02623" r="1.0154063" style="fill:none;stroke:black;stroke-width:2;"/>
<circle cx="1587.4348" cy="259.44714" r="1.0194678" style="fill:none;stroke:black;stroke-width:2;"/>
<circle cx="1564.0457" cy="279.8797" r="0.99915975" style="fill:none;stroke:black;stroke-width:2;"/>
<circle cx="1546.5083" cy="308.5312" r="0.99712896" style="fill:none;stroke:black;stroke-width:2;"/>
<circle cx="1574.3724" cy="309.7703" r="0.9950981" style="fill:none;stroke:black;stroke-width:2;"/>
<circle cx="1606.1431" cy="292.12177" r="0.8752802" style="fill:none;stroke:black;stroke-width:2;"/>
<circle cx="1623.9357" cy="322.27307" r="0.99915975" style="fill:none;stroke:black;stroke-width:2;"/>
<circle cx="1598.7849" cy="323.67957" r="1.0133754" style="fill:none;stroke:black;stroke-width:2;"/>
<circle cx="1604.6052" cy="354.97046" r="0.90371156" style="fill:none;stroke:black;stroke-width:2;"/>
<circle cx="1628.3505" cy="360.14722" r="0.8570029" style="fill:none;stroke:black;stroke-width:2;"/>
<circle cx="1609.4569" cy="391.71643" r="0.8529413" style="fill:none;stroke:black;stroke-width:2;"/>
<circle cx="1579.1958" cy="379.0621" r="0.9057424" style="fill:none;stroke:black;stroke-width:2;"/>
<circle cx="1551.0386" cy="373.75372" r="0.9605743" style="fill:none;stroke:black;stroke-width:2;"/>
<circle cx="1543.0642" cy="398.71155" r="0.932143" style="fill:none;stroke:black;stroke-width:2;"/>
<circle cx="1573.9377" cy="405.99377" r="0.83872557" style="fill:none;stroke:black;stroke-width:2;"/>
<circle cx="1594.2957" cy="435.81805" r="0.93620455" style="fill:none;stroke:black;stroke-width:2;"/>
<circle cx="1581.8328" cy="462.6583" r="0.9402662" style="fill:none;stroke:black;stroke-width:2;"/>
<circle cx="1575.0857" cy="495.28577" r="0.87934184" style="fill:none;stroke:black;stroke-width:2;"/>
<circle cx="1600.3518" cy="510.21283" r="0.9301121" style="fill:none;stroke:black;stroke-width:2;"/>
<circle cx="1584.0453" cy="530.52313" r="1.0052522" style="fill:none;stroke:black;stroke-width:2;"/>
<circle cx="1562.3677" cy="542.2468" r="0.93620455" style="fill:none;stroke:black;stroke-width:2;"/>
<circle cx="1535.3315" cy="538.89343" r="0.91792727" style="fill:none;stroke:black;stroke-width:2;"/>
<circle cx="1544.4752" cy="565.2449" r="0.93417376" style="fill:none;stroke:black;stroke-width:2;"/>
<circle cx="1565.862" cy="581.56146" r="0.92808133" style="fill:none;stroke:black;stroke-width:2;"/>
<circle cx="1589.255" cy="596.05444" r="0.932143" style="fill:none;stroke:black;stroke-width:2;"/>
<circle cx="1611.6932" cy="574.5394" r="1.0133754" style="fill:none;stroke:black;stroke-width:2;"/>
<circle cx="1589.1311" cy="560.008" r="0.96463597" style="fill:none;stroke:black;stroke-width:2;"/>
<circle cx="1610.8822" cy="538.2161" r="0.91183484" style="fill:none;stroke:black;stroke-width:2;"/>
<circle cx="1630.5411" cy="552.75134" r="0.90371156" style="fill:none;stroke:black;stroke-width:2;"/>
<circle cx="1657.7068" cy="557.23114" r="0.88543427" style="fill:none;stroke:black;stroke-width:2;"/>
<circle cx="1684.9579" cy="552.99023" r="0.8752802" style="fill:none;stroke:black;stroke-width:2;"/>
<circle cx="1694.8033" cy="520.6185" r="0.96666676" style="fill:none;stroke:black;stroke-width:2;"/>
<circle cx="1670.2493" cy="527.9353" r="0.87934184" style="fill:none;stroke:black;stroke-width:2;"/>
<circle cx="1646.2655" cy="523.89044" r="0.91183484" style="fill:none;stroke:black;stroke-width:2;"/>
<circle cx="1627.1182" cy="510.47144" r="0.909804" style="fill:none;stroke:black;stroke-width:2;"/>
<circle cx="1630.0851" cy="458.58105" r="0.9890057" style="fill:none;stroke:black;stroke-width:2;"/>
<circle cx="1657.5726" cy="454.3276" r="0.9524511" style="fill:none;stroke:black;stroke-width:2;"/>
<circle cx="1648.5479" cy="485.6292" r="0.9057424" style="fill:none;stroke:black;stroke-width:2;"/>
<circle cx="1674.0325" cy="498.2708" r="0.91183484" style="fill:none;stroke:black;stroke-width:2;"/>
<circle cx="1680.9056" cy="469.48535" r="0.9544819" style="fill:none;stroke:black;stroke-width:2;"/>
<circle cx="1701.5723" cy="491.27756" r="0.9727592" style="fill:none;stroke:black;stroke-width:2;"/>
<circle cx="1719.8372" cy="509.05353" r="0.9890057" style="fill:none;stroke:black;stroke-width:2;"/>
<circle cx="1741.8185" cy="493.83957" r="0.9626051" style="fill:none;stroke:black;stroke-width:2;"/>
<circle cx="1714.9541" cy="469.3828" r="0.9768208" style="fill:none;stroke:black;stroke-width:2;"/>
<circle cx="1740.9536" cy="465.5571" r="1.0032214" style="fill:none;stroke:black;stroke-width:2;"/>
<circle cx="1763.9531" cy="469.5803" r="0.99915975" style="fill:none;stroke:black;stroke-width:2;"/>
<circle cx="1799.1321" cy="495.43805" r="0.88137263" style="fill:none;stroke:black;stroke-width:2;"/>
<circle cx="1794.1913" cy="524.4139" r="0.94432783" style="fill:none;stroke:black;stroke-width:2;"/>
<circle cx="1822.7283" cy="516.04016" r="0.96666676" style="fill:none;stroke:black;stroke-width:2;"/>
<circle cx="1843.7283" cy="529.70215" r="0.9402662" style="fill:none;stroke:black;stroke-width:2;"/>
<circle cx="1889.2518" cy="542.6494" r="0.8691878" style="fill:none;stroke:black;stroke-width:2;"/>
<circle cx="1915.7993" cy="535.83124" r="0.8590337" style="fill:none;stroke:black;stroke-width:2;"/>
<circle cx="1927.668" cy="512.6721" r="0.9057424" style="fill:none;stroke:black;stroke-width:2;"/>
<circle cx="1935.8043" cy="485.08188" r="0.91995806" style="fill:none;stroke:black;stroke-width:2;"/>
<circle cx="1944.5737" cy="439.87592" r="0.9768208" style="fill:none;stroke:black;stroke-width:2;"/>
<circle cx="1970.215" cy="385.14743" r="0.90371156" style="fill:none;stroke:black;stroke-width:2;"/>
<circle cx="1967.6992" cy="353.33588" r="0.95042026" style="fill:none;stroke:black;stroke-width:2;"/>
<circle cx="1972.5713" cy="274.81195" r="0.89558834" style="fill:none;stroke:black;stroke-width:2;"/>
<circle cx="1966.7273" cy="244.07591" r="0.9565127" style="fill:none;stroke:black;stroke-width:2;"/>
<circle cx="1945.3505" cy="227.00171" r="0.93620455" style="fill:none;stroke:black;stroke-width:2;"/>
<circle cx="1969.9513" cy="208.52914" r="0.91792727" style="fill:none;stroke:black;stroke-width:2;"/>
<circle cx="1944.3845" cy="195.55089" r="0.93417376" style="fill:none;stroke:black;stroke-width:2;"/>
<circle cx="1937.4976" cy="167.65646" r="0.93417376" style="fill:none;stroke:black;stroke-width:2;"/>
<circle cx="1932.019" cy="138.4512" r="0.94229704" style="fill:none;stroke:black;stroke-width:2;"/>
<circle cx="1980.1394" cy="177.01627" r="0.99915975" style="fill:none;stroke:black;stroke-width:2;"/>
<circle cx="2010.3937" cy="188.73193" r="0.9626051" style="fill:none;stroke:black;stroke-width:2;"/>
<circle cx="2029.6409" cy="217.1267" r="0.9626051" style="fill:none;stroke:black;stroke-width:2;"/>
<circle cx="2029.9482" cy="253.50572" r="0.9544819" style="fill:none;stroke:black;stroke-width:2;"/>
<circle cx="1998.5573" cy="250.39221" r="0.96869755" style="fill:none;stroke:black;stroke-width:2;"/>
<circle cx="2004.7607" cy="284.02753" r="0.91183484" style="fill:none;stroke:black;stroke-width:2;"/>
<circle cx="2033.5226" cy="282.9749" r="0.9626051" style="fill:none;stroke:black;stroke-width:2;"/>
<circle cx="2025.0068" cy="316.08908" r="0.8529413" style="fill:none;stroke:black;stroke-width:2;"/>
<circle cx="2025.4338" cy="350.71283" r="0.89965" style="fill:none;stroke:black;stroke-width:2;"/>
<circle cx="2003.8696" cy="403.18945" r="0.84684885" style="fill:none;stroke:black;stroke-width:2;"/>
<circle cx="1965.0134" cy="416.71564" r="0.89355755" style="fill:none;stroke:black;stroke-width:2;"/>
<circle cx="1926.5903" cy="460.02173" r="1.0011905" style="fill:none;stroke:black;stroke-width:2;"/>
<circle cx="1908.9187" cy="490.09592" r="0.98088247" style="fill:none;stroke:black;stroke-width:2;"/>
<circle cx="1896.2544" cy="513.7532" r="0.9707284" style="fill:none;stroke:black;stroke-width:2;"/>
<circle cx="1869.2799" cy="515.84625" r="0.98088247" style="fill:none;stroke:black;stroke-width:2;"/>
<circle cx="1877.4495" cy="487.16562" r="0.9950981" style="fill:none;stroke:black;stroke-width:2;"/>
<circle cx="1850.088" cy="494.30212" r="1.007283" style="fill:none;stroke:black;stroke-width:2;"/>
<circle cx="1825.5641" cy="488.49713" r="1.0194678" style="fill:none;stroke:black;stroke-width:2;"/>
</g></g></svg>
