<?xml version="1.0" encoding="UTF-8" standalone="no"?>
<!-- Created for Inkscape (http://www.inkscape.org/) -->

<svg
   xmlns:dc="http://purl.org/dc/elements/1.1/"
   xmlns:cc="http://creativecommons.org/ns#"
   xmlns:rdf="http://www.w3.org/1999/02/22-rdf-syntax-ns#"
   xmlns:svg="http://www.w3.org/2000/svg"
   xmlns="http://www.w3.org/2000/svg"
   xmlns:sodipodi="http://sodipodi.sourceforge.net/DTD/sodipodi-0.dtd"
   xmlns:inkscape="http://www.inkscape.org/namespaces/inkscape"
   width="3200"
   height="800"
   id="svg2985"
   version="1.1"
   inkscape:version="0.48.1 r9760">
  <defs
     id="defs2987" />
  <sodipodi:namedview
     id="base"
     pagecolor="#ffffff"
     bordercolor="#666666"
     borderopacity="1.0"
     inkscape:pageopacity="0.0"
     inkscape:pageshadow="2"
     inkscape:zoom="0.35"
     inkscape:cx="1600"
     inkscape:cy="400"
     inkscape:document-units="px"
     inkscape:current-layer="layer1"
     showgrid="false"  />
  <metadata
     id="metadata2990">
    <rdf:RDF>
      <cc:Work
         rdf:about="">
        <dc:format>image/svg+xml</dc:format>
        <dc:type
           rdf:resource="http://purl.org/dc/dcmitype/StillImage" />
        <dc:title />
      </cc:Work>
    </rdf:RDF>
  </metadata>
  <g
     inkscape:label="Layer 1"
     inkscape:groupmode="layer"
     id="layer1"> 
     <g>
<circle cx="1519.5417" cy="540.1566" r="4.292647" style="fill:none;stroke:black;stroke-width:2;"/>
<circle cx="1488.029" cy="525.8933" r="4.292647" style="fill:none;stroke:black;stroke-width:2;"/>
<circle cx="1510.2483" cy="518.4328" r="4.265196" style="fill:none;stroke:black;stroke-width:2;"/>
<circle cx="1532.656" cy="511.40576" r="4.292647" style="fill:none;stroke:black;stroke-width:2;"/>
<circle cx="1552.3975" cy="499.94833" r="4.2789216" style="fill:none;stroke:black;stroke-width:2;"/>
<circle cx="1552.432" cy="535.98285" r="4.2789216" style="fill:none;stroke:black;stroke-width:2;"/>
<circle cx="1579.1897" cy="534.16504" r="4.2789216" style="fill:none;stroke:black;stroke-width:2;"/>
<circle cx="1570.1362" cy="514.63135" r="4.2789216" style="fill:none;stroke:black;stroke-width:2;"/>
<circle cx="1595.3804" cy="510.0942" r="4.2789216" style="fill:none;stroke:black;stroke-width:2;"/>
<circle cx="1574.835" cy="490.00378" r="4.2789216" style="fill:none;stroke:black;stroke-width:2;"/>
<circle cx="1597.7468" cy="481.58078" r="4.2789216" style="fill:none;stroke:black;stroke-width:2;"/>
<circle cx="1620.6411" cy="465.85324" r="4.2789216" style="fill:none;stroke:black;stroke-width:2;"/>
<circle cx="1639.9158" cy="484.15375" r="4.2789216" style="fill:none;stroke:black;stroke-width:2;"/>
<circle cx="1615.7123" cy="492.38794" r="4.265196" style="fill:none;stroke:black;stroke-width:2;"/>
<circle cx="1613.0817" cy="532.8733" r="3.2083333" style="fill:none;stroke:black;stroke-width:2;"/>
<circle cx="1633.8573" cy="509.91818" r="3.8808823" style="fill:none;stroke:black;stroke-width:2;"/>
<circle cx="1661.2909" cy="527.8745" r="4.265196" style="fill:none;stroke:black;stroke-width:2;"/>
<circle cx="1662.8516" cy="496.57773" r="4.2789216" style="fill:none;stroke:black;stroke-width:2;"/>
<circle cx="1644.6138" cy="457.60773" r="3.3593137" style="fill:none;stroke:black;stroke-width:2;"/>
<circle cx="1662.6848" cy="473.0337" r="4.292647" style="fill:none;stroke:black;stroke-width:2;"/>
<circle cx="1685.6417" cy="482.73944" r="3.9495099" style="fill:none;stroke:black;stroke-width:2;"/>
<circle cx="1737.7784" cy="451.05817" r="4.292647" style="fill:none;stroke:black;stroke-width:2;"/>
<circle cx="1738.6407" cy="477.96857" r="4.3063726" style="fill:none;stroke:black;stroke-width:2;"/>
<circle cx="1739.1031" cy="509.05408" r="3.2769608" style="fill:none;stroke:black;stroke-width:2;"/>
<circle cx="1681.6718" cy="508.43015" r="4.2789216" style="fill:none;stroke:black;stroke-width:2;"/>
<circle cx="1683.9946" cy="531.3139" r="4.2789216" style="fill:none;stroke:black;stroke-width:2;"/>
<circle cx="1676.5875" cy="551.88525" r="4.2789216" style="fill:none;stroke:black;stroke-width:2;"/>
<circle cx="1649.0918" cy="550.359" r="4.2789216" style="fill:none;stroke:black;stroke-width:2;"/>
<circle cx="1626.1989" cy="558.6025" r="4.292647" style="fill:none;stroke:black;stroke-width:2;"/>
<circle cx="1602.5502" cy="568.421" r="4.292647" style="fill:none;stroke:black;stroke-width:2;"/>
<circle cx="1580.9604" cy="579.6172" r="4.2789216" style="fill:none;stroke:black;stroke-width:2;"/>
<circle cx="1559.149" cy="599.78577" r="4.265196" style="fill:none;stroke:black;stroke-width:2;"/>
<circle cx="1536.8654" cy="614.25464" r="4.292647" style="fill:none;stroke:black;stroke-width:2;"/>
<circle cx="1513.4277" cy="627.09875" r="4.292647" style="fill:none;stroke:black;stroke-width:2;"/>
<circle cx="1532.729" cy="584.7941" r="4.2789216" style="fill:none;stroke:black;stroke-width:2;"/>
<circle cx="1509.6552" cy="565.3668" r="4.2789216" style="fill:none;stroke:black;stroke-width:2;"/>
<circle cx="1505.0161" cy="592.1813" r="4.292647" style="fill:none;stroke:black;stroke-width:2;"/>
<circle cx="1487.3202" cy="611.30225" r="4.292647" style="fill:none;stroke:black;stroke-width:2;"/>
<circle cx="1465.3562" cy="592.1463" r="4.292647" style="fill:none;stroke:black;stroke-width:2;"/>
<circle cx="1452.8483" cy="629.52997" r="4.292647" style="fill:none;stroke:black;stroke-width:2;"/>
<circle cx="1466.069" cy="653.4795" r="4.2789216" style="fill:none;stroke:black;stroke-width:2;"/>
<circle cx="1484.9622" cy="678.10754" r="4.155392" style="fill:none;stroke:black;stroke-width:2;"/>
<circle cx="1502.2814" cy="662.219" r="4.2514706" style="fill:none;stroke:black;stroke-width:2;"/>
<circle cx="1521.3801" cy="678.61487" r="4.265196" style="fill:none;stroke:black;stroke-width:2;"/>
<circle cx="1543.3773" cy="670.92255" r="4.2789216" style="fill:none;stroke:black;stroke-width:2;"/>
<circle cx="1563.0569" cy="653.69946" r="4.2377453" style="fill:none;stroke:black;stroke-width:2;"/>
<circle cx="1594.5472" cy="654.4182" r="4.2789216" style="fill:none;stroke:black;stroke-width:2;"/>
<circle cx="1585.8914" cy="632.33984" r="4.265196" style="fill:none;stroke:black;stroke-width:2;"/>
<circle cx="1614.3242" cy="628.8839" r="4.2789216" style="fill:none;stroke:black;stroke-width:2;"/>
<circle cx="1642.4938" cy="630.62585" r="4.265196" style="fill:none;stroke:black;stroke-width:2;"/>
<circle cx="1669.3958" cy="627.7206" r="4.2789216" style="fill:none;stroke:black;stroke-width:2;"/>
<circle cx="1668.0978" cy="602.7211" r="4.059314" style="fill:none;stroke:black;stroke-width:2;"/>
<circle cx="1696.9601" cy="606.988" r="4.292647" style="fill:none;stroke:black;stroke-width:2;"/>
<circle cx="1725.6509" cy="616.11066" r="4.265196" style="fill:none;stroke:black;stroke-width:2;"/>
<circle cx="1732.5164" cy="595.9311" r="4.2789216" style="fill:none;stroke:black;stroke-width:2;"/>
<circle cx="1761.2546" cy="604.57574" r="4.2789216" style="fill:none;stroke:black;stroke-width:2;"/>
<circle cx="1790.8973" cy="604.6593" r="4.2789216" style="fill:none;stroke:black;stroke-width:2;"/>
<circle cx="1785.9758" cy="573.61414" r="4.2789216" style="fill:none;stroke:black;stroke-width:2;"/>
<circle cx="1817.864" cy="569.6891" r="4.2789216" style="fill:none;stroke:black;stroke-width:2;"/>
<circle cx="1806.0518" cy="534.8903" r="4.1416664" style="fill:none;stroke:black;stroke-width:2;"/>
<circle cx="1834.5088" cy="522.91534" r="3.8534312" style="fill:none;stroke:black;stroke-width:2;"/>
<circle cx="1824.8577" cy="495.29425" r="4.2789216" style="fill:none;stroke:black;stroke-width:2;"/>
<circle cx="1829.6562" cy="465.64572" r="4.2377453" style="fill:none;stroke:black;stroke-width:2;"/>
<circle cx="1821.9652" cy="429.17133" r="4.1965685" style="fill:none;stroke:black;stroke-width:2;"/>
<circle cx="1836.522" cy="401.82224" r="4.2102942" style="fill:none;stroke:black;stroke-width:2;"/>
<circle cx="1848.3689" cy="374.56418" r="4.114216" style="fill:none;stroke:black;stroke-width:2;"/>
<circle cx="1861.9001" cy="345.46982" r="4.1691175" style="fill:none;stroke:black;stroke-width:2;"/>
<circle cx="1854.2312" cy="316.54443" r="4.2240195" style="fill:none;stroke:black;stroke-width:2;"/>
<circle cx="1816.2886" cy="310.18518" r="3.7161765" style="fill:none;stroke:black;stroke-width:2;"/>
<circle cx="1797.505" cy="330.67557" r="4.265196" style="fill:none;stroke:black;stroke-width:2;"/>
<circle cx="1781.5751" cy="352.68237" r="3.9083333" style="fill:none;stroke:black;stroke-width:2;"/>
<circle cx="1792.8997" cy="401.2578" r="4.2514706" style="fill:none;stroke:black;stroke-width:2;"/>
<circle cx="1779.4393" cy="378.5404" r="4.0044117" style="fill:none;stroke:black;stroke-width:2;"/>
<circle cx="1748.6637" cy="369.25183" r="3.7985294" style="fill:none;stroke:black;stroke-width:2;"/>
<circle cx="1720.9927" cy="357.1234" r="4.155392" style="fill:none;stroke:black;stroke-width:2;"/>
<circle cx="1692.7227" cy="360.7325" r="4.2377453" style="fill:none;stroke:black;stroke-width:2;"/>
<circle cx="1701.4288" cy="381.57178" r="4.3063726" style="fill:none;stroke:black;stroke-width:2;"/>
<circle cx="1698.8044" cy="405.75018" r="4.2514706" style="fill:none;stroke:black;stroke-width:2;"/>
<circle cx="1677.8562" cy="420.02936" r="4.3063726" style="fill:none;stroke:black;stroke-width:2;"/>
<circle cx="1654.0548" cy="427.86008" r="4.3063726" style="fill:none;stroke:black;stroke-width:2;"/>
<circle cx="1657.3464" cy="400.69745" r="4.320098" style="fill:none;stroke:black;stroke-width:2;"/>
<circle cx="1632.1724" cy="411.00983" r="4.320098" style="fill:none;stroke:black;stroke-width:2;"/>
<circle cx="1588.2452" cy="373.7623" r="4.292647" style="fill:none;stroke:black;stroke-width:2;"/>
<circle cx="1559.3412" cy="379.70728" r="4.292647" style="fill:none;stroke:black;stroke-width:2;"/>
<circle cx="1546.096" cy="407.12537" r="4.059314" style="fill:none;stroke:black;stroke-width:2;"/>
<circle cx="1519.8386" cy="420.3684" r="4.2240195" style="fill:none;stroke:black;stroke-width:2;"/>
<circle cx="1489.41" cy="417.10593" r="4.2789216" style="fill:none;stroke:black;stroke-width:2;"/>
<circle cx="1460.4921" cy="408.5965" r="4.155392" style="fill:none;stroke:black;stroke-width:2;"/>
<circle cx="1440.4336" cy="430.56833" r="4.2789216" style="fill:none;stroke:black;stroke-width:2;"/>
<circle cx="1465.7953" cy="533.49365" r="4.292647" style="fill:none;stroke:black;stroke-width:2;"/>
<circle cx="1442.3083" cy="528.5239" r="4.059314" style="fill:none;stroke:black;stroke-width:2;"/>
<circle cx="1422.2928" cy="509.1446" r="4.2377453" style="fill:none;stroke:black;stroke-width:2;"/>
<circle cx="1410.3586" cy="482.86276" r="4.2789216" style="fill:none;stroke:black;stroke-width:2;"/>
<circle cx="1420.3267" cy="449.42966" r="4.265196" style="fill:none;stroke:black;stroke-width:2;"/>
<circle cx="1411.8033" cy="421.24622" r="4.2789216" style="fill:none;stroke:black;stroke-width:2;"/>
<circle cx="1391.123" cy="439.05612" r="4.265196" style="fill:none;stroke:black;stroke-width:2;"/>
<circle cx="1384.062" cy="410.18073" r="4.2789216" style="fill:none;stroke:black;stroke-width:2;"/>
<circle cx="1402.2362" cy="389.99896" r="4.2789216" style="fill:none;stroke:black;stroke-width:2;"/>
<circle cx="1415.8475" cy="361.4178" r="4.292647" style="fill:none;stroke:black;stroke-width:2;"/>
<circle cx="1440.2689" cy="323.2291" r="4.2789216" style="fill:none;stroke:black;stroke-width:2;"/>
<circle cx="1464.2314" cy="281.76935" r="4.1691175" style="fill:none;stroke:black;stroke-width:2;"/>
<circle cx="1472.2883" cy="254.83952" r="4.265196" style="fill:none;stroke:black;stroke-width:2;"/>
<circle cx="1462.4723" cy="310.11084" r="4.2789216" style="fill:none;stroke:black;stroke-width:2;"/>
<circle cx="1442.5752" cy="375.90146" r="4.2789216" style="fill:none;stroke:black;stroke-width:2;"/>
<circle cx="1432.2711" cy="402.2904" r="4.2789216" style="fill:none;stroke:black;stroke-width:2;"/>
<circle cx="1472.4341" cy="380.51022" r="4.2789216" style="fill:none;stroke:black;stroke-width:2;"/>
<circle cx="1501.7264" cy="383.77222" r="4.2789216" style="fill:none;stroke:black;stroke-width:2;"/>
<circle cx="1530.6992" cy="384.36487" r="4.2789216" style="fill:none;stroke:black;stroke-width:2;"/>
<circle cx="1565.5414" cy="322.44788" r="4.114216" style="fill:none;stroke:black;stroke-width:2;"/>
<circle cx="1607.1165" cy="318.50436" r="4.2789216" style="fill:none;stroke:black;stroke-width:2;"/>
<circle cx="1616.7288" cy="364.44678" r="4.292647" style="fill:none;stroke:black;stroke-width:2;"/>
<circle cx="1644.6991" cy="354.59824" r="4.2789216" style="fill:none;stroke:black;stroke-width:2;"/>
<circle cx="1669.2585" cy="375.28522" r="4.3063726" style="fill:none;stroke:black;stroke-width:2;"/>
<circle cx="1669.421" cy="340.53674" r="4.292647" style="fill:none;stroke:black;stroke-width:2;"/>
<circle cx="1695.8644" cy="330.01645" r="4.2789216" style="fill:none;stroke:black;stroke-width:2;"/>
<circle cx="1721.3752" cy="318.98096" r="4.2789216" style="fill:none;stroke:black;stroke-width:2;"/>
<circle cx="1695.8593" cy="289.94003" r="3.8534312" style="fill:none;stroke:black;stroke-width:2;"/>
<circle cx="1732.0703" cy="272.46225" r="3.7848039" style="fill:none;stroke:black;stroke-width:2;"/>
<circle cx="1746.2566" cy="306.87155" r="4.2789216" style="fill:none;stroke:black;stroke-width:2;"/>
<circle cx="1769.9105" cy="289.69812" r="4.2789216" style="fill:none;stroke:black;stroke-width:2;"/>
<circle cx="1794.9915" cy="269.9821" r="4.265196" style="fill:none;stroke:black;stroke-width:2;"/>
<circle cx="1859.3782" cy="266.1317" r="4.073039" style="fill:none;stroke:black;stroke-width:2;"/>
<circle cx="1847.4135" cy="234.00989" r="4.347549" style="fill:none;stroke:black;stroke-width:2;"/>
<circle cx="1823.5507" cy="252.48782" r="4.3612747" style="fill:none;stroke:black;stroke-width:2;"/>
<circle cx="1791.577" cy="243.38065" r="3.2220588" style="fill:none;stroke:black;stroke-width:2;"/>
<circle cx="1772.9012" cy="223.2862" r="3.839706" style="fill:none;stroke:black;stroke-width:2;"/>
<circle cx="1760.3524" cy="203.13245" r="4.292647" style="fill:none;stroke:black;stroke-width:2;"/>
<circle cx="1750.8582" cy="177.39697" r="4.2789216" style="fill:none;stroke:black;stroke-width:2;"/>
<circle cx="1733.628" cy="156.23473" r="4.1416664" style="fill:none;stroke:black;stroke-width:2;"/>
<circle cx="1707.565" cy="143.28052" r="4.292647" style="fill:none;stroke:black;stroke-width:2;"/>
<circle cx="1685.9856" cy="123.36125" r="3.9357843" style="fill:none;stroke:black;stroke-width:2;"/>
<circle cx="1655.5706" cy="121.25884" r="4.2789216" style="fill:none;stroke:black;stroke-width:2;"/>
<circle cx="1623.1017" cy="118.24556" r="4.2789216" style="fill:none;stroke:black;stroke-width:2;"/>
<circle cx="1593.9852" cy="116.37099" r="4.2102942" style="fill:none;stroke:black;stroke-width:2;"/>
<circle cx="1567.6461" cy="127.11276" r="4.292647" style="fill:none;stroke:black;stroke-width:2;"/>
<circle cx="1594.28" cy="148.98178" r="4.2514706" style="fill:none;stroke:black;stroke-width:2;"/>
<circle cx="1629.9698" cy="150.43074" r="4.1965685" style="fill:none;stroke:black;stroke-width:2;"/>
<circle cx="1607.0034" cy="181.07219" r="4.10049" style="fill:none;stroke:black;stroke-width:2;"/>
<circle cx="1569.6987" cy="180.50346" r="4.155392" style="fill:none;stroke:black;stroke-width:2;"/>
<circle cx="1554.4934" cy="156.76704" r="4.114216" style="fill:none;stroke:black;stroke-width:2;"/>
<circle cx="1539.5635" cy="139.11185" r="4.2240195" style="fill:none;stroke:black;stroke-width:2;"/>
<circle cx="1518.0195" cy="158.64313" r="4.265196" style="fill:none;stroke:black;stroke-width:2;"/>
<circle cx="1537.7473" cy="187.88605" r="3.8259804" style="fill:none;stroke:black;stroke-width:2;"/>
<circle cx="1503.1423" cy="180.83354" r="4.292647" style="fill:none;stroke:black;stroke-width:2;"/>
<circle cx="1476.2246" cy="227.2517" r="4.127941" style="fill:none;stroke:black;stroke-width:2;"/>
</g></g></svg>
